# xmcd
#
# Track frame offsets:
#	150
#	10978
#	27224
#	43618
#	62034
#	81886
#	95314
#	117412
#	146258
#	164401
#	188238
#	213026
#	234547
#	252296
#	274047
#	291477
#
# Disc length: 4759 seconds
#
# Revision: 1
# Processed by: cddbd v1.5.1PL2 Copyright (c) Steve Scherf et al.
# Submitted via: audiograbber 1.83.01
#
DISCID=de129510
DTITLE=Michael Chapman - Dangerous When Sober CD1
DYEAR=2004
DGENRE=Blues
TTITLE0=Key To The Highway
TTITLE1=See See Rider
TTITLE2=Let Me Go Home Whiskey
TTITLE3=Parchman Farm
TTITLE4=Rockport Sunday
TTITLE5=Andru's Easy Rider
TTITLE6=Indian Queens
TTITLE7=Not So Much A Garden (More Like A Maze)
TTITLE8=Anniversary
TTITLE9=It Didn't Work Out
TTITLE10=Thank You P.K. 1944
TTITLE11=Melody - Daisy Bell - Naked Ladies and Electric Ragtime
TTITLE12=Reason To Believe
TTITLE13=Wrecked Again
TTITLE14=Rabbit Hills
TTITLE15=A Scholary Man
EXTD=
EXTT0=
EXTT1=
EXTT2=
EXTT3=
EXTT4=
EXTT5=
EXTT6=
EXTT7=
EXTT8=
EXTT9=
EXTT10=
EXTT11=
EXTT12=
EXTT13=
EXTT14=
EXTT15=
PLAYORDER=
